<?xml version="1.0" standalone="no"?>
<!DOCTYPE svg PUBLIC "-//W3C//DTD SVG 20010904//EN"
 "http://www.w3.org/TR/2001/REC-SVG-20010904/DTD/svg10.dtd">
<svg version="1.0" xmlns="http://www.w3.org/2000/svg"
 width="600.000000pt" height="600.000000pt" viewBox="0 0 600.000000 600.000000"
 preserveAspectRatio="xMidYMid meet">
<metadata>
Created by potrace 1.14, written by Peter Selinger 2001-2017
</metadata>
<g transform="translate(0.000000,600.000000) scale(0.100000,-0.100000)"
fill="#000000" stroke="none">
<path d="M2848 5765 c-2 -1 -35 -5 -75 -9 -278 -23 -599 -124 -856 -268 -554
-311 -979 -834 -1197 -1475 -17 -51 -33 -101 -35 -110 -2 -10 -11 -43 -20 -73
-18 -65 -61 -274 -71 -345 -3 -27 -8 -59 -10 -70 -22 -112 -22 -658 0 -727 3
-7 7 -38 11 -68 18 -166 107 -512 165 -645 5 -11 21 -49 36 -85 186 -459 532
-888 936 -1163 321 -219 656 -341 1058 -386 78 -9 390 -6 450 4 19 3 67 10
105 16 39 6 97 18 130 25 33 8 70 17 83 20 57 12 195 60 302 105 198 84 409
214 582 359 99 83 267 252 333 335 22 27 48 58 57 69 10 11 57 78 105 150 98
146 218 376 281 538 69 177 148 473 168 626 3 26 7 58 10 72 26 157 26 622 -1
785 -11 63 -15 91 -20 130 -3 22 -10 58 -15 80 -5 22 -14 63 -20 90 -25 116
-72 263 -131 411 -322 815 -996 1408 -1780 1568 -42 9 -98 18 -125 21 -27 3
-60 8 -74 11 -25 6 -376 14 -382 9z m812 -738 c248 -58 402 -153 455 -281 19
-44 25 -128 14 -171 -12 -43 -67 -104 -141 -155 -220 -152 -463 -309 -469
-303 -4 5 -19 31 -34 58 -79 146 -188 279 -278 339 -152 100 -350 104 -517 8
-64 -37 -115 -81 -164 -145 -122 -157 -120 -308 5 -497 48 -72 129 -155 205
-211 97 -72 265 -147 365 -164 19 -3 41 -8 49 -10 8 -2 35 -7 60 -10 25 -4 81
-15 125 -27 44 -11 87 -21 95 -23 39 -9 179 -60 253 -93 447 -200 684 -490
688 -843 3 -341 -227 -675 -681 -991 -299 -208 -593 -349 -865 -418 -150 -38
-170 -41 -330 -45 -373 -9 -672 120 -825 357 -134 207 -31 415 325 652 108 73
296 176 319 176 6 0 30 -40 53 -88 106 -223 256 -384 437 -467 309 -143 640
-21 750 277 20 53 26 86 31 164 15 216 -137 418 -431 572 -67 35 -274 117
-332 131 -20 6 -71 19 -112 30 -63 18 -211 48 -370 76 -172 30 -374 146 -490
282 -222 260 -229 605 -21 962 97 166 250 337 431 482 66 53 246 170 315 204
33 17 62 33 63 38 2 4 11 7 21 7 9 0 21 4 27 9 13 12 138 60 214 83 93 27 195
48 265 55 33 3 62 7 64 10 3 2 77 1 165 -1 123 -4 186 -11 266 -29z"/>
</g>
</svg>
